HIERARCHY
ROOT Hips
{
	OFFSET -0.179506 -22.333345 2.821913
	CHANNELS 6 Xposition Yposition Zposition Zrotation Yrotation Xrotation 
	JOINT LeftUpLeg
	{
		OFFSET 6.951974 -9.140623 -0.681533
		CHANNELS 3 Zrotation Yrotation Xrotation
		JOINT LeftLeg
		{
			OFFSET 3.427654 -37.519855 -0.449580
			CHANNELS 3 Zrotation Yrotation Xrotation
			JOINT LeftFoot
			{
				OFFSET -1.359570 -39.796059 -4.369333
				CHANNELS 3 Zrotation Yrotation Xrotation
				JOINT LeftToe
				{
					OFFSET 2.635814 -5.579078 11.928840
					CHANNELS 3 Zrotation Yrotation Xrotation
					End Site
					{
						OFFSET 0.000000 0.000000 0.000000
					}
				}
			}
		}
	}
	JOINT RightUpLeg
	{
		OFFSET -6.767048 -9.052170 -0.431982
		CHANNELS 3 Zrotation Yrotation Xrotation
		JOINT RightLeg
		{
			OFFSET -3.829005 -38.256897 -0.885003
			CHANNELS 3 Zrotation Yrotation Xrotation
			JOINT RightFoot
			{
				OFFSET 1.577377 -39.841461 -4.231180
				CHANNELS 3 Zrotation Yrotation Xrotation
				JOINT RightToe
				{
					OFFSET -2.537174 -4.814398 12.334795
					CHANNELS 3 Zrotation Yrotation Xrotation
					End Site
					{
						OFFSET 0.000000 0.000000 0.000000
					}
				}
			}
		}
	}
	JOINT Spine
	{
		OFFSET -0.253288 10.896323 -2.669631
		CHANNELS 3 Zrotation Yrotation Xrotation
		JOINT Spine1
		{
			OFFSET 0.548704 13.518043 0.109247
			CHANNELS 3 Zrotation Yrotation Xrotation
			JOINT Spine2
			{
				OFFSET 0.145701 5.292222 2.542457
				CHANNELS 3 Zrotation Yrotation Xrotation
				JOINT Neck
				{
					OFFSET -0.277840 21.387037 -4.285703
					CHANNELS 3 Zrotation Yrotation Xrotation
					JOINT Head
					{
						OFFSET 0.515184 6.496960 5.134897
						CHANNELS 3 Zrotation Yrotation Xrotation
						End Site
						{
							OFFSET 0.000000 0.000000 0.000000
						}
					}
				}
				JOINT LeftShoulder
				{
					OFFSET 7.884473 12.174932 -3.408961
					CHANNELS 3 Zrotation Yrotation Xrotation
					JOINT LeftArm
					{
						OFFSET 9.097692 3.046888 -0.886815
						CHANNELS 3 Zrotation Yrotation Xrotation
						JOINT LeftForeArm
						{
							OFFSET 25.961220 -1.277207 -2.745643
							CHANNELS 3 Zrotation Yrotation Xrotation
							JOINT LeftHand
							{
								OFFSET 24.923361 0.898606 -0.117091
								CHANNELS 3 Zrotation Yrotation Xrotation
								End Site
								{
									OFFSET 0.000000 0.000000 0.000000
								}
							}
						}
					}
				}
				JOINT RightShoulder
				{
					OFFSET -8.175920 11.883285 -3.861528
					CHANNELS 3 Zrotation Yrotation Xrotation
					JOINT RightArm
					{
						OFFSET -9.601238 3.255117 -0.914307
						CHANNELS 3 Zrotation Yrotation Xrotation
						JOINT RightForeArm
						{
							OFFSET -25.374195 -1.332924 -2.140099
							CHANNELS 3 Zrotation Yrotation Xrotation
							JOINT RightHand
							{
								OFFSET -25.529810 0.777228 -0.555919
								CHANNELS 3 Zrotation Yrotation Xrotation
								End Site
								{
									OFFSET 0.000000 0.000000 0.000000
								}
							}
						}
					}
				}
			}
		}
	}
}
MOTION
Frames: 7
Frame Time: 0.033333
-138.525269 114.125671 -121.695778 -179.713851 11.295421 172.976809 4.807797 -7.366749 -15.762403 -2.929585 -19.741034 11.659276 -8.173331 4.540352 -2.196629 2.183468 0.218508 0.500094 2.056198 0.714511 17.194445 1.262604 23.558377 14.510671 6.369529 2.781833 -6.599829 2.637483 -0.779053 -0.236938 -1.449160 7.290474 0.190628 2.279042 -3.417820 1.405072 0.874702 1.761121 -1.080267 2.199839 0.088851 16.909515 3.664121 -4.354376 8.844269 3.078966 -6.511778 -11.756240 2.152137 -16.197419 -18.916069 82.818936 -53.186980 -80.750465 18.087642 -15.918322 -5.811729 -4.894749 8.076200 -12.545568 1.485332 20.131043 -21.541097 -96.606356 46.195848 -90.621622 -14.105931 10.495114 -12.621069 
-139.191132 114.149170 -124.086578 -179.628310 13.909912 173.456529 4.241912 -8.083973 -15.751239 -3.180622 -19.878515 12.851783 -7.623652 4.397846 -2.779410 2.122456 0.357349 0.543626 1.234217 1.231490 16.985056 1.139155 24.120071 15.985063 7.214819 3.264180 -5.739459 2.616900 -0.801525 -0.249809 -1.630622 7.305872 -0.226126 2.568521 -3.578289 1.588551 0.987913 1.784630 -1.071432 2.216482 0.388687 17.368282 4.031034 -3.140439 9.307494 2.397122 -7.648115 -10.984766 0.427480 -17.341680 -17.414267 95.320524 -55.020304 -91.483520 17.494108 -16.529868 -7.268614 -4.791545 8.740711 -11.998032 2.881992 21.031032 -21.290134 -105.649291 44.646598 -97.691910 -13.173255 10.770255 -13.266484 
-139.576630 114.103912 -125.926193 -179.434914 16.785822 173.978337 3.751667 -8.885790 -15.497097 -3.487327 -19.994047 14.674742 -6.967345 4.401482 -3.609857 2.098943 0.363986 0.596751 0.510739 1.834369 16.277985 1.454447 24.427081 18.233437 7.829628 3.859502 -5.829132 2.592303 -0.759581 -0.089561 -1.803942 7.125233 -0.522438 3.019424 -3.822373 1.917145 1.096326 1.766158 -1.119656 2.284604 0.517922 17.962522 4.502601 -1.835908 9.508526 1.632968 -8.806882 -9.967078 -2.620571 -19.224876 -15.200245 106.466629 -56.921101 -101.365210 16.340217 -16.567529 -9.313579 -4.737490 9.362719 -11.351003 5.088762 22.703267 -20.250969 -112.089789 44.543208 -102.808384 -11.679346 10.529503 -14.123068 
-139.917603 113.956528 -127.720291 -179.050830 19.254238 173.936755 3.252562 -9.238947 -14.726737 -3.964343 -19.731003 16.643377 -5.887315 4.619228 -4.851435 2.190331 0.349086 0.593125 0.014533 2.465204 15.063920 2.576418 24.529592 22.638754 8.523422 4.742175 -5.029893 2.507426 -0.689169 0.022871 -2.054384 6.792851 -0.466474 3.518210 -4.091145 2.571776 1.039599 1.652781 -1.260085 2.542673 0.521935 18.757986 4.880980 -0.766049 9.774116 0.763551 -9.886354 -8.726647 -6.570330 -21.414599 -12.529101 115.906939 -58.485126 -110.246135 14.926271 -16.334974 -12.521182 -4.336814 9.964035 -10.479537 8.357880 24.282722 -17.926249 -116.912997 45.852686 -106.694326 -9.342160 10.097977 -15.822064 
-140.188446 113.720825 -129.483017 -179.123911 21.748713 173.465999 2.614743 -9.454717 -13.640598 -4.704348 -19.113980 18.763860 -4.446950 5.352413 -6.537132 2.419990 0.207672 0.425370 -0.554696 3.027277 13.211479 3.774975 23.483954 27.864693 8.943076 4.285327 -3.177434 2.528070 -0.602202 0.144038 -2.169122 6.217122 0.152411 3.974610 -4.277494 2.898995 0.863250 1.440949 -1.179670 3.054446 0.262383 19.249504 5.057356 -0.121543 10.096395 -0.160880 -10.605751 -7.626031 -11.956192 -23.802357 -8.832437 121.573569 -61.621435 -115.573038 13.603097 -16.039652 -15.257978 -3.776389 10.320647 -10.112679 13.774434 26.735377 -13.860282 -119.340952 48.884738 -108.567688 -6.858748 9.387302 -17.969089 
-140.376312 113.457169 -131.189835 -179.296530 23.842524 172.560384 1.633966 -9.591768 -12.183332 -5.023836 -17.920648 20.837657 -2.876565 5.914037 -8.580656 3.093570 -0.009846 0.227100 -0.722062 3.768302 10.711577 4.840388 21.639644 34.439902 9.455916 4.072036 -1.002139 2.513915 -0.459894 0.390153 -2.529168 5.616415 0.833039 4.622878 -4.524376 3.777063 0.508892 1.289724 -1.774792 3.759736 -0.031619 20.116177 5.381441 0.584573 10.997303 -1.744120 -11.402723 -6.000440 -17.796553 -25.392943 -4.448458 123.838090 -65.989005 -117.865847 12.153142 -15.705154 -16.586188 -2.454958 10.911995 -9.496933 20.240644 28.316338 -8.277911 -119.486142 53.258491 -109.001480 -3.924305 8.753228 -19.502516 
-140.468277 113.205597 -133.794342 -179.552292 26.234009 171.714291 0.317268 -9.554161 -9.891036 -4.943562 -16.267291 22.018831 -0.968984 6.815086 -11.403342 3.716791 -0.395000 -0.070425 -0.788002 4.355471 8.637817 5.387797 19.533390 39.647474 9.932872 4.171663 1.063539 2.502904 -0.263029 0.477925 -3.030391 5.167985 1.807674 5.313724 -4.656822 3.959312 0.048756 1.126241 -1.912525 4.734991 -0.031694 20.241334 5.597425 0.681766 11.554671 -3.450757 -11.487232 -4.302827 -25.733457 -26.595456 0.768321 115.272415 -73.222580 -108.931392 9.575860 -15.296202 -17.281919 -0.100430 11.053617 -8.798811 28.697298 29.400124 -1.510637 -115.003718 59.977713 -105.361857 0.148927 8.318659 -22.383674 
